<svg xmlns="http://www.w3.org/2000/svg" viewBox="0 0 512 512" fill="none">
    <defs>
      <linearGradient id="cxFavLid" x1="37" y1="146" x2="475" y2="366" gradientUnits="userSpaceOnUse">
        <stop offset="0%" stop-color="#818cf8"/>
        <stop offset="50%" stop-color="#22d3ee"/>
        <stop offset="100%" stop-color="#34d399"/>
      </linearGradient>
      <radialGradient id="cxFavSpace" cx="0.5" cy="0.5" r="0.5">
        <stop offset="0%" stop-color="#05060f"/>
        <stop offset="45%" stop-color="#0b1026"/>
        <stop offset="78%" stop-color="#312e81"/>
        <stop offset="92%" stop-color="#4338ca"/>
        <stop offset="100%" stop-color="#6366f1"/>
      </radialGradient>
      <clipPath id="cxFavClip"><circle cx="256" cy="256" r="118.0"/></clipPath>
      <clipPath id="cxFavEye"><path d="M34 272 C 96 126, 330 84, 478 234 C 392 414, 156 406, 34 272 Z"/></clipPath>
    </defs>
    <g fill="url(#cxFavLid)">
      <path d="M43.2 249.7 C39.1 230.3 23.9 218.9 5.3 220.7 C24.6 218.7 40.4 229.9 48.3 248.0 Z"/>
      <path d="M65.4 219.2 C62.0 197.8 48.2 183.3 30.0 180.5 C48.9 183.1 63.5 197.4 70.9 217.7 Z"/>
      <path d="M93.0 193.2 C90.3 168.3 77.6 149.5 60.1 141.6 C78.3 149.4 91.8 168.0 98.9 192.0 Z"/>
      <path d="M125.2 172.0 C124.0 146.7 114.7 126.2 101.6 114.5 C115.5 126.1 125.6 146.5 131.4 171.1 Z"/>
      <path d="M161.2 155.9 C161.2 127.7 155.1 103.7 146.1 87.7 C155.9 103.6 162.9 127.5 167.6 155.4 Z"/>
      <path d="M200.1 145.2 C201.7 116.3 199.9 91.1 197.1 73.3 C200.8 91.1 203.5 116.3 206.7 145.1 Z"/>
      <path d="M241.1 140.2 C244.4 111.6 247.1 86.6 250.8 68.9 C248.0 86.6 246.2 111.7 247.9 140.4 Z"/>
      <path d="M283.5 141.1 C288.6 110.9 296.1 84.9 306.7 67.7 C297.0 85.0 290.4 111.1 290.3 141.7 Z"/>
      <path d="M326.4 148.3 C332.9 120.0 344.4 96.6 360.4 83.3 C345.3 96.8 334.7 120.3 333.1 149.2 Z"/>
      <path d="M368.9 162.0 C377.2 133.3 393.3 111.1 415.0 101.8 C394.1 111.3 378.9 133.6 375.5 163.3 Z"/>
      <path d="M410.3 182.4 C419.7 156.3 438.3 137.9 462.5 134.6 C439.2 138.1 421.3 156.8 416.7 184.1 Z"/>
      <path d="M449.8 210.0 C460.1 185.6 481.2 170.6 507.0 173.3 C482.0 170.9 461.7 186.1 455.9 212.0 Z"/>
    </g>
    <g clip-path="url(#cxFavEye)">
      <path d="M34 272 C 96 126, 330 84, 478 234 C 392 414, 156 406, 34 272 Z" fill="#cdd9ee" opacity="0.30"/>
      <circle cx="256" cy="256" r="118.0" fill="url(#cxFavSpace)"/>
      <g clip-path="url(#cxFavClip)">
        <line x1="317.7" y1="339.8" x2="306.8" y2="335.2" stroke="#7dd3fc" stroke-width="1" opacity="0.2"/>
      <line x1="317.7" y1="339.8" x2="311.2" y2="346.1" stroke="#7dd3fc" stroke-width="1" opacity="0.23"/>
      <line x1="308.5" y1="224.6" x2="316.8" y2="214.9" stroke="#7dd3fc" stroke-width="1" opacity="0.1"/>
      <line x1="308.5" y1="224.6" x2="300.2" y2="217.0" stroke="#7dd3fc" stroke-width="1" opacity="0.12"/>
      <line x1="177.1" y1="288.5" x2="176.0" y2="299.4" stroke="#7dd3fc" stroke-width="1" opacity="0.17"/>
      <line x1="177.1" y1="288.5" x2="168.7" y2="281.8" stroke="#7dd3fc" stroke-width="1" opacity="0.19"/>
      <line x1="273.7" y1="351.4" x2="281.6" y2="355.9" stroke="#7dd3fc" stroke-width="1" opacity="0.11"/>
      <line x1="273.7" y1="351.4" x2="264.2" y2="347.9" stroke="#7dd3fc" stroke-width="1" opacity="0.23"/>
      <line x1="273.7" y1="351.4" x2="283.6" y2="342.8" stroke="#7dd3fc" stroke-width="1" opacity="0.2"/>
      <line x1="273.7" y1="351.4" x2="268.6" y2="364.1" stroke="#7dd3fc" stroke-width="1" opacity="0.15"/>
      <line x1="297.1" y1="318.0" x2="295.1" y2="328.3" stroke="#7dd3fc" stroke-width="1" opacity="0.25"/>
      <line x1="297.1" y1="318.0" x2="285.6" y2="310.5" stroke="#7dd3fc" stroke-width="1" opacity="0.13"/>
      <line x1="236.4" y1="166.6" x2="238.7" y2="179.3" stroke="#7dd3fc" stroke-width="1" opacity="0.24"/>
      <line x1="236.4" y1="166.6" x2="234.7" y2="154.3" stroke="#7dd3fc" stroke-width="1" opacity="0.25"/>
      <line x1="239.9" y1="335.0" x2="236.9" y2="345.8" stroke="#7dd3fc" stroke-width="1" opacity="0.11"/>
      <line x1="239.9" y1="335.0" x2="240.4" y2="322.6" stroke="#7dd3fc" stroke-width="1" opacity="0.2"/>
      <line x1="155.6" y1="269.1" x2="167.4" y2="272.5" stroke="#7dd3fc" stroke-width="1" opacity="0.22"/>
      <line x1="155.6" y1="269.1" x2="163.0" y2="260.1" stroke="#7dd3fc" stroke-width="1" opacity="0.26"/>
      <line x1="155.6" y1="269.1" x2="149.6" y2="260.4" stroke="#7dd3fc" stroke-width="1" opacity="0.21"/>
      <line x1="226.3" y1="341.0" x2="222.1" y2="331.0" stroke="#7dd3fc" stroke-width="1" opacity="0.25"/>
      <line x1="226.3" y1="341.0" x2="218.9" y2="346.5" stroke="#7dd3fc" stroke-width="1" opacity="0.2"/>
      <line x1="320.7" y1="326.2" x2="311.4" y2="326.5" stroke="#7dd3fc" stroke-width="1" opacity="0.13"/>
      <line x1="320.7" y1="326.2" x2="315.2" y2="314.0" stroke="#7dd3fc" stroke-width="1" opacity="0.19"/>
      <line x1="203.5" y1="307.2" x2="208.1" y2="315.7" stroke="#7dd3fc" stroke-width="1" opacity="0.19"/>
      <line x1="203.5" y1="307.2" x2="199.6" y2="298.8" stroke="#7dd3fc" stroke-width="1" opacity="0.18"/>
      <line x1="203.5" y1="307.2" x2="187.9" y2="310.5" stroke="#7dd3fc" stroke-width="1" opacity="0.26"/>
      <line x1="289.1" y1="303.9" x2="300.8" y2="303.3" stroke="#7dd3fc" stroke-width="1" opacity="0.21"/>
      <line x1="289.1" y1="303.9" x2="285.6" y2="310.5" stroke="#7dd3fc" stroke-width="1" opacity="0.14"/>
      <line x1="222.1" y1="331.0" x2="231.4" y2="324.0" stroke="#7dd3fc" stroke-width="1" opacity="0.26"/>
      <line x1="222.1" y1="331.0" x2="211.2" y2="337.6" stroke="#7dd3fc" stroke-width="1" opacity="0.19"/>
      <line x1="306.8" y1="335.2" x2="311.4" y2="326.5" stroke="#7dd3fc" stroke-width="1" opacity="0.17"/>
      <line x1="306.8" y1="335.2" x2="303.7" y2="351.4" stroke="#7dd3fc" stroke-width="1" opacity="0.21"/>
      <line x1="306.8" y1="335.2" x2="311.2" y2="346.1" stroke="#7dd3fc" stroke-width="1" opacity="0.16"/>
      <line x1="231.4" y1="324.0" x2="240.4" y2="322.6" stroke="#7dd3fc" stroke-width="1" opacity="0.17"/>
      <line x1="183.4" y1="266.6" x2="173.2" y2="254.9" stroke="#7dd3fc" stroke-width="1" opacity="0.22"/>
      <line x1="183.4" y1="266.6" x2="195.8" y2="265.1" stroke="#7dd3fc" stroke-width="1" opacity="0.23"/>
      <line x1="328.4" y1="199.8" x2="337.9" y2="206.7" stroke="#7dd3fc" stroke-width="1" opacity="0.16"/>
      <line x1="328.4" y1="199.8" x2="335.9" y2="192.8" stroke="#7dd3fc" stroke-width="1" opacity="0.25"/>
      <line x1="221.1" y1="314.5" x2="228.3" y2="305.8" stroke="#7dd3fc" stroke-width="1" opacity="0.18"/>
      <line x1="221.1" y1="314.5" x2="215.3" y2="318.4" stroke="#7dd3fc" stroke-width="1" opacity="0.2"/>
      <line x1="156.0" y1="231.6" x2="168.5" y2="237.6" stroke="#7dd3fc" stroke-width="1" opacity="0.14"/>
      <line x1="156.0" y1="231.6" x2="160.4" y2="218.6" stroke="#7dd3fc" stroke-width="1" opacity="0.21"/>
      <line x1="156.0" y1="231.6" x2="157.7" y2="245.2" stroke="#7dd3fc" stroke-width="1" opacity="0.18"/>
      <line x1="360.3" y1="235.7" x2="353.2" y2="246.1" stroke="#7dd3fc" stroke-width="1" opacity="0.11"/>
      <line x1="360.3" y1="235.7" x2="353.9" y2="227.5" stroke="#7dd3fc" stroke-width="1" opacity="0.11"/>
      <line x1="344.8" y1="274.8" x2="353.9" y2="271.5" stroke="#7dd3fc" stroke-width="1" opacity="0.17"/>
      <line x1="344.8" y1="274.8" x2="351.8" y2="284.3" stroke="#7dd3fc" stroke-width="1" opacity="0.16"/>
      <line x1="295.1" y1="328.3" x2="283.1" y2="322.1" stroke="#7dd3fc" stroke-width="1" opacity="0.12"/>
      <line x1="194.0" y1="219.0" x2="185.3" y2="225.9" stroke="#7dd3fc" stroke-width="1" opacity="0.19"/>
      <line x1="194.0" y1="219.0" x2="193.5" y2="230.8" stroke="#7dd3fc" stroke-width="1" opacity="0.13"/>
      <line x1="194.0" y1="219.0" x2="204.6" y2="225.5" stroke="#7dd3fc" stroke-width="1" opacity="0.18"/>
      <line x1="289.0" y1="196.3" x2="289.1" y2="205.9" stroke="#7dd3fc" stroke-width="1" opacity="0.11"/>
      <line x1="289.0" y1="196.3" x2="279.7" y2="185.2" stroke="#7dd3fc" stroke-width="1" opacity="0.21"/>
      <line x1="289.0" y1="196.3" x2="292.2" y2="182.5" stroke="#7dd3fc" stroke-width="1" opacity="0.22"/>
      <line x1="289.0" y1="196.3" x2="278.2" y2="206.5" stroke="#7dd3fc" stroke-width="1" opacity="0.16"/>
      <line x1="286.6" y1="166.1" x2="294.9" y2="171.8" stroke="#7dd3fc" stroke-width="1" opacity="0.22"/>
      <line x1="286.6" y1="166.1" x2="275.3" y2="170.3" stroke="#7dd3fc" stroke-width="1" opacity="0.11"/>
      <line x1="286.6" y1="166.1" x2="290.3" y2="155.9" stroke="#7dd3fc" stroke-width="1" opacity="0.11"/>
      <line x1="252.4" y1="362.2" x2="247.7" y2="346.2" stroke="#7dd3fc" stroke-width="1" opacity="0.24"/>
      <line x1="252.4" y1="362.2" x2="268.6" y2="364.1" stroke="#7dd3fc" stroke-width="1" opacity="0.18"/>
      <line x1="289.1" y1="205.9" x2="301.8" y2="203.3" stroke="#7dd3fc" stroke-width="1" opacity="0.23"/>
      <line x1="289.1" y1="205.9" x2="278.2" y2="206.5" stroke="#7dd3fc" stroke-width="1" opacity="0.13"/>
      <line x1="252.6" y1="304.7" x2="235.8" y2="312.0" stroke="#7dd3fc" stroke-width="1" opacity="0.23"/>
      <line x1="252.6" y1="304.7" x2="263.5" y2="320.5" stroke="#7dd3fc" stroke-width="1" opacity="0.11"/>
      <line x1="302.6" y1="180.5" x2="308.0" y2="195.9" stroke="#7dd3fc" stroke-width="1" opacity="0.16"/>
      <line x1="302.6" y1="180.5" x2="310.4" y2="170.1" stroke="#7dd3fc" stroke-width="1" opacity="0.19"/>
      <line x1="302.6" y1="180.5" x2="292.2" y2="182.5" stroke="#7dd3fc" stroke-width="1" opacity="0.23"/>
      <line x1="302.6" y1="180.5" x2="294.9" y2="171.8" stroke="#7dd3fc" stroke-width="1" opacity="0.17"/>
      <line x1="312.2" y1="301.6" x2="300.8" y2="303.3" stroke="#7dd3fc" stroke-width="1" opacity="0.13"/>
      <line x1="312.2" y1="301.6" x2="305.0" y2="294.9" stroke="#7dd3fc" stroke-width="1" opacity="0.21"/>
      <line x1="312.2" y1="301.6" x2="315.2" y2="314.0" stroke="#7dd3fc" stroke-width="1" opacity="0.25"/>
      <line x1="312.2" y1="301.6" x2="323.9" y2="301.5" stroke="#7dd3fc" stroke-width="1" opacity="0.19"/>
      <line x1="185.3" y1="225.9" x2="171.0" y2="221.9" stroke="#7dd3fc" stroke-width="1" opacity="0.14"/>
      <line x1="185.3" y1="225.9" x2="193.5" y2="230.8" stroke="#7dd3fc" stroke-width="1" opacity="0.18"/>
      <line x1="185.3" y1="225.9" x2="184.7" y2="235.5" stroke="#7dd3fc" stroke-width="1" opacity="0.25"/>
      <line x1="185.3" y1="225.9" x2="186.7" y2="231.5" stroke="#7dd3fc" stroke-width="1" opacity="0.2"/>
      <line x1="235.8" y1="312.0" x2="228.3" y2="305.8" stroke="#7dd3fc" stroke-width="1" opacity="0.2"/>
      <line x1="235.8" y1="312.0" x2="240.4" y2="322.6" stroke="#7dd3fc" stroke-width="1" opacity="0.25"/>
      <line x1="198.7" y1="340.9" x2="185.0" y2="339.3" stroke="#7dd3fc" stroke-width="1" opacity="0.22"/>
      <line x1="198.7" y1="340.9" x2="193.4" y2="332.0" stroke="#7dd3fc" stroke-width="1" opacity="0.2"/>
      <line x1="198.7" y1="340.9" x2="201.2" y2="351.1" stroke="#7dd3fc" stroke-width="1" opacity="0.17"/>
      <line x1="327.5" y1="272.6" x2="321.8" y2="280.3" stroke="#7dd3fc" stroke-width="1" opacity="0.22"/>
      <line x1="327.5" y1="272.6" x2="313.8" y2="275.6" stroke="#7dd3fc" stroke-width="1" opacity="0.21"/>
      <line x1="266.0" y1="156.7" x2="260.2" y2="149.5" stroke="#7dd3fc" stroke-width="1" opacity="0.24"/>
      <line x1="266.0" y1="156.7" x2="276.0" y2="152.3" stroke="#7dd3fc" stroke-width="1" opacity="0.11"/>
      <line x1="238.7" y1="179.3" x2="226.3" y2="184.0" stroke="#7dd3fc" stroke-width="1" opacity="0.23"/>
      <line x1="336.1" y1="248.5" x2="341.4" y2="258.6" stroke="#7dd3fc" stroke-width="1" opacity="0.24"/>
      <line x1="336.1" y1="248.5" x2="327.2" y2="250.7" stroke="#7dd3fc" stroke-width="1" opacity="0.24"/>
      <line x1="300.8" y1="303.3" x2="305.0" y2="294.9" stroke="#7dd3fc" stroke-width="1" opacity="0.17"/>
      <line x1="180.6" y1="180.8" x2="174.5" y2="193.6" stroke="#7dd3fc" stroke-width="1" opacity="0.11"/>
      <line x1="180.6" y1="180.8" x2="192.4" y2="185.2" stroke="#7dd3fc" stroke-width="1" opacity="0.22"/>
      <line x1="208.1" y1="315.7" x2="197.5" y2="323.2" stroke="#7dd3fc" stroke-width="1" opacity="0.23"/>
      <line x1="208.1" y1="315.7" x2="215.3" y2="318.4" stroke="#7dd3fc" stroke-width="1" opacity="0.12"/>
      <line x1="256.9" y1="194.3" x2="251.8" y2="184.2" stroke="#7dd3fc" stroke-width="1" opacity="0.2"/>
      <line x1="256.9" y1="194.3" x2="259.2" y2="204.8" stroke="#7dd3fc" stroke-width="1" opacity="0.17"/>
      <line x1="256.9" y1="194.3" x2="266.2" y2="193.1" stroke="#7dd3fc" stroke-width="1" opacity="0.22"/>
      <line x1="171.0" y1="221.9" x2="160.4" y2="218.6" stroke="#7dd3fc" stroke-width="1" opacity="0.1"/>
      <line x1="361.6" y1="276.3" x2="353.9" y2="271.5" stroke="#7dd3fc" stroke-width="1" opacity="0.17"/>
      <line x1="361.6" y1="276.3" x2="363.4" y2="266.1" stroke="#7dd3fc" stroke-width="1" opacity="0.23"/>
      <line x1="174.5" y1="193.6" x2="173.2" y2="202.9" stroke="#7dd3fc" stroke-width="1" opacity="0.14"/>
      <line x1="174.5" y1="193.6" x2="185.8" y2="202.9" stroke="#7dd3fc" stroke-width="1" opacity="0.17"/>
      <line x1="199.6" y1="298.8" x2="187.9" y2="310.5" stroke="#7dd3fc" stroke-width="1" opacity="0.2"/>
      <line x1="199.6" y1="298.8" x2="219.5" y2="292.0" stroke="#7dd3fc" stroke-width="1" opacity="0.16"/>
      <line x1="185.0" y1="339.3" x2="193.4" y2="332.0" stroke="#7dd3fc" stroke-width="1" opacity="0.21"/>
      <line x1="341.4" y1="258.6" x2="327.2" y2="250.7" stroke="#7dd3fc" stroke-width="1" opacity="0.17"/>
      <line x1="209.8" y1="170.7" x2="192.8" y2="168.5" stroke="#7dd3fc" stroke-width="1" opacity="0.16"/>
      <line x1="209.8" y1="170.7" x2="213.0" y2="160.9" stroke="#7dd3fc" stroke-width="1" opacity="0.15"/>
      <line x1="209.8" y1="170.7" x2="216.7" y2="183.9" stroke="#7dd3fc" stroke-width="1" opacity="0.26"/>
      <line x1="209.8" y1="170.7" x2="220.4" y2="166.5" stroke="#7dd3fc" stroke-width="1" opacity="0.25"/>
      <line x1="320.7" y1="291.0" x2="321.8" y2="280.3" stroke="#7dd3fc" stroke-width="1" opacity="0.19"/>
      <line x1="320.7" y1="291.0" x2="331.5" y2="288.0" stroke="#7dd3fc" stroke-width="1" opacity="0.18"/>
      <line x1="320.7" y1="291.0" x2="312.5" y2="286.5" stroke="#7dd3fc" stroke-width="1" opacity="0.17"/>
      <line x1="320.7" y1="291.0" x2="323.9" y2="301.5" stroke="#7dd3fc" stroke-width="1" opacity="0.22"/>
      <line x1="192.8" y1="168.5" x2="192.4" y2="185.2" stroke="#7dd3fc" stroke-width="1" opacity="0.22"/>
      <line x1="173.2" y1="202.9" x2="185.8" y2="202.9" stroke="#7dd3fc" stroke-width="1" opacity="0.18"/>
      <line x1="173.2" y1="202.9" x2="163.7" y2="204.5" stroke="#7dd3fc" stroke-width="1" opacity="0.2"/>
      <line x1="254.8" y1="170.6" x2="252.3" y2="161.2" stroke="#7dd3fc" stroke-width="1" opacity="0.17"/>
      <line x1="254.8" y1="170.6" x2="251.8" y2="184.2" stroke="#7dd3fc" stroke-width="1" opacity="0.16"/>
      <line x1="279.7" y1="185.2" x2="292.2" y2="182.5" stroke="#7dd3fc" stroke-width="1" opacity="0.18"/>
      <line x1="279.7" y1="185.2" x2="275.3" y2="170.3" stroke="#7dd3fc" stroke-width="1" opacity="0.19"/>
      <line x1="176.0" y1="299.4" x2="162.8" y2="295.7" stroke="#7dd3fc" stroke-width="1" opacity="0.16"/>
      <line x1="176.0" y1="299.4" x2="164.6" y2="305.9" stroke="#7dd3fc" stroke-width="1" opacity="0.14"/>
      <line x1="236.8" y1="195.7" x2="229.9" y2="207.0" stroke="#7dd3fc" stroke-width="1" opacity="0.13"/>
      <line x1="236.8" y1="195.7" x2="226.3" y2="184.0" stroke="#7dd3fc" stroke-width="1" opacity="0.24"/>
      <line x1="347.2" y1="196.6" x2="337.9" y2="206.7" stroke="#7dd3fc" stroke-width="1" opacity="0.24"/>
      <line x1="347.2" y1="196.6" x2="335.9" y2="192.8" stroke="#7dd3fc" stroke-width="1" opacity="0.11"/>
      <line x1="260.2" y1="149.5" x2="249.5" y2="152.2" stroke="#7dd3fc" stroke-width="1" opacity="0.13"/>
      <line x1="229.9" y1="207.0" x2="218.0" y2="210.4" stroke="#7dd3fc" stroke-width="1" opacity="0.22"/>
      <line x1="252.3" y1="161.2" x2="249.5" y2="152.2" stroke="#7dd3fc" stroke-width="1" opacity="0.15"/>
      <line x1="231.9" y1="357.3" x2="220.4" y2="355.3" stroke="#7dd3fc" stroke-width="1" opacity="0.14"/>
      <line x1="231.9" y1="357.3" x2="236.9" y2="345.8" stroke="#7dd3fc" stroke-width="1" opacity="0.18"/>
      <line x1="193.5" y1="230.8" x2="204.6" y2="225.5" stroke="#7dd3fc" stroke-width="1" opacity="0.24"/>
      <line x1="193.5" y1="230.8" x2="205.3" y2="244.5" stroke="#7dd3fc" stroke-width="1" opacity="0.16"/>
      <line x1="193.5" y1="230.8" x2="186.7" y2="231.5" stroke="#7dd3fc" stroke-width="1" opacity="0.19"/>
      <line x1="338.6" y1="305.5" x2="342.7" y2="317.0" stroke="#7dd3fc" stroke-width="1" opacity="0.18"/>
      <line x1="338.6" y1="305.5" x2="348.6" y2="306.7" stroke="#7dd3fc" stroke-width="1" opacity="0.14"/>
      <line x1="201.3" y1="199.0" x2="205.7" y2="212.5" stroke="#7dd3fc" stroke-width="1" opacity="0.2"/>
      <line x1="201.3" y1="199.0" x2="185.8" y2="202.9" stroke="#7dd3fc" stroke-width="1" opacity="0.1"/>
      <line x1="201.3" y1="199.0" x2="192.4" y2="185.2" stroke="#7dd3fc" stroke-width="1" opacity="0.17"/>
      <line x1="255.2" y1="338.3" x2="266.5" y2="338.6" stroke="#7dd3fc" stroke-width="1" opacity="0.15"/>
      <line x1="255.2" y1="338.3" x2="247.7" y2="346.2" stroke="#7dd3fc" stroke-width="1" opacity="0.2"/>
      <line x1="356.4" y1="292.9" x2="351.8" y2="284.3" stroke="#7dd3fc" stroke-width="1" opacity="0.2"/>
      <line x1="356.4" y1="292.9" x2="343.2" y2="292.9" stroke="#7dd3fc" stroke-width="1" opacity="0.17"/>
      <line x1="306.4" y1="270.4" x2="312.5" y2="286.5" stroke="#7dd3fc" stroke-width="1" opacity="0.11"/>
      <line x1="306.4" y1="270.4" x2="313.8" y2="275.6" stroke="#7dd3fc" stroke-width="1" opacity="0.16"/>
      <line x1="226.3" y1="184.0" x2="216.7" y2="183.9" stroke="#7dd3fc" stroke-width="1" opacity="0.21"/>
      <line x1="167.4" y1="272.5" x2="168.7" y2="281.8" stroke="#7dd3fc" stroke-width="1" opacity="0.25"/>
      <line x1="321.8" y1="280.3" x2="331.5" y2="288.0" stroke="#7dd3fc" stroke-width="1" opacity="0.22"/>
      <line x1="321.8" y1="280.3" x2="313.8" y2="275.6" stroke="#7dd3fc" stroke-width="1" opacity="0.16"/>
      <line x1="283.1" y1="322.1" x2="285.6" y2="310.5" stroke="#7dd3fc" stroke-width="1" opacity="0.15"/>
      <line x1="316.8" y1="214.9" x2="327.0" y2="219.8" stroke="#7dd3fc" stroke-width="1" opacity="0.17"/>
      <line x1="336.4" y1="235.5" x2="345.2" y2="240.6" stroke="#7dd3fc" stroke-width="1" opacity="0.2"/>
      <line x1="336.4" y1="235.5" x2="338.6" y2="224.6" stroke="#7dd3fc" stroke-width="1" opacity="0.24"/>
      <line x1="353.9" y1="271.5" x2="363.4" y2="266.1" stroke="#7dd3fc" stroke-width="1" opacity="0.15"/>
      <line x1="348.7" y1="215.1" x2="337.9" y2="206.7" stroke="#7dd3fc" stroke-width="1" opacity="0.22"/>
      <line x1="348.7" y1="215.1" x2="353.9" y2="227.5" stroke="#7dd3fc" stroke-width="1" opacity="0.13"/>
      <line x1="328.7" y1="177.0" x2="316.3" y2="179.8" stroke="#7dd3fc" stroke-width="1" opacity="0.18"/>
      <line x1="328.7" y1="177.0" x2="335.9" y2="192.8" stroke="#7dd3fc" stroke-width="1" opacity="0.23"/>
      <line x1="266.5" y1="338.6" x2="264.2" y2="347.9" stroke="#7dd3fc" stroke-width="1" opacity="0.2"/>
      <line x1="266.5" y1="338.6" x2="268.4" y2="328.3" stroke="#7dd3fc" stroke-width="1" opacity="0.17"/>
      <line x1="163.0" y1="260.1" x2="173.2" y2="254.9" stroke="#7dd3fc" stroke-width="1" opacity="0.25"/>
      <line x1="163.0" y1="260.1" x2="149.6" y2="260.4" stroke="#7dd3fc" stroke-width="1" opacity="0.19"/>
      <line x1="187.9" y1="310.5" x2="197.5" y2="323.2" stroke="#7dd3fc" stroke-width="1" opacity="0.2"/>
      <line x1="187.9" y1="310.5" x2="176.9" y2="323.5" stroke="#7dd3fc" stroke-width="1" opacity="0.21"/>
      <line x1="331.5" y1="288.0" x2="343.2" y2="292.9" stroke="#7dd3fc" stroke-width="1" opacity="0.12"/>
      <line x1="162.8" y1="295.7" x2="164.6" y2="305.9" stroke="#7dd3fc" stroke-width="1" opacity="0.22"/>
      <line x1="162.8" y1="295.7" x2="152.5" y2="285.9" stroke="#7dd3fc" stroke-width="1" opacity="0.19"/>
      <line x1="205.7" y1="212.5" x2="204.6" y2="225.5" stroke="#7dd3fc" stroke-width="1" opacity="0.13"/>
      <line x1="205.7" y1="212.5" x2="218.0" y2="210.4" stroke="#7dd3fc" stroke-width="1" opacity="0.17"/>
      <line x1="327.6" y1="314.5" x2="315.2" y2="314.0" stroke="#7dd3fc" stroke-width="1" opacity="0.26"/>
      <line x1="327.6" y1="314.5" x2="323.9" y2="301.5" stroke="#7dd3fc" stroke-width="1" opacity="0.23"/>
      <line x1="342.7" y1="317.0" x2="348.6" y2="306.7" stroke="#7dd3fc" stroke-width="1" opacity="0.11"/>
      <line x1="197.5" y1="323.2" x2="193.4" y2="332.0" stroke="#7dd3fc" stroke-width="1" opacity="0.22"/>
      <line x1="234.7" y1="154.3" x2="224.1" y2="150.8" stroke="#7dd3fc" stroke-width="1" opacity="0.22"/>
      <line x1="184.7" y1="235.5" x2="189.0" y2="248.4" stroke="#7dd3fc" stroke-width="1" opacity="0.14"/>
      <line x1="184.7" y1="235.5" x2="186.7" y2="231.5" stroke="#7dd3fc" stroke-width="1" opacity="0.15"/>
      <line x1="315.3" y1="247.3" x2="319.3" y2="238.3" stroke="#7dd3fc" stroke-width="1" opacity="0.2"/>
      <line x1="315.3" y1="247.3" x2="324.2" y2="258.0" stroke="#7dd3fc" stroke-width="1" opacity="0.1"/>
      <line x1="315.3" y1="247.3" x2="327.2" y2="250.7" stroke="#7dd3fc" stroke-width="1" opacity="0.18"/>
      <line x1="164.6" y1="305.9" x2="169.6" y2="316.1" stroke="#7dd3fc" stroke-width="1" opacity="0.24"/>
      <line x1="353.2" y1="246.1" x2="345.2" y2="240.6" stroke="#7dd3fc" stroke-width="1" opacity="0.2"/>
      <line x1="353.2" y1="246.1" x2="357.5" y2="255.2" stroke="#7dd3fc" stroke-width="1" opacity="0.15"/>
      <line x1="308.0" y1="195.9" x2="301.8" y2="203.3" stroke="#7dd3fc" stroke-width="1" opacity="0.13"/>
      <line x1="310.4" y1="170.1" x2="316.3" y2="179.8" stroke="#7dd3fc" stroke-width="1" opacity="0.16"/>
      <line x1="292.2" y1="182.5" x2="294.9" y2="171.8" stroke="#7dd3fc" stroke-width="1" opacity="0.15"/>
      <line x1="303.7" y1="351.4" x2="311.2" y2="346.1" stroke="#7dd3fc" stroke-width="1" opacity="0.23"/>
      <line x1="254.3" y1="324.1" x2="263.5" y2="320.5" stroke="#7dd3fc" stroke-width="1" opacity="0.13"/>
      <line x1="254.3" y1="324.1" x2="240.4" y2="322.6" stroke="#7dd3fc" stroke-width="1" opacity="0.18"/>
      <line x1="327.0" y1="219.8" x2="338.6" y2="224.6" stroke="#7dd3fc" stroke-width="1" opacity="0.21"/>
      <line x1="169.6" y1="316.1" x2="176.9" y2="323.5" stroke="#7dd3fc" stroke-width="1" opacity="0.2"/>
      <line x1="281.6" y1="355.9" x2="283.6" y2="342.8" stroke="#7dd3fc" stroke-width="1" opacity="0.26"/>
      <line x1="281.6" y1="355.9" x2="268.6" y2="364.1" stroke="#7dd3fc" stroke-width="1" opacity="0.14"/>
      <line x1="259.2" y1="204.8" x2="266.2" y2="193.1" stroke="#7dd3fc" stroke-width="1" opacity="0.12"/>
      <line x1="319.3" y1="238.3" x2="327.2" y2="250.7" stroke="#7dd3fc" stroke-width="1" opacity="0.25"/>
      <line x1="351.8" y1="284.3" x2="343.2" y2="292.9" stroke="#7dd3fc" stroke-width="1" opacity="0.23"/>
      <line x1="363.4" y1="266.1" x2="357.5" y2="255.2" stroke="#7dd3fc" stroke-width="1" opacity="0.25"/>
      <line x1="163.7" y1="204.5" x2="160.4" y2="218.6" stroke="#7dd3fc" stroke-width="1" opacity="0.25"/>
      <line x1="168.5" y1="237.6" x2="157.7" y2="245.2" stroke="#7dd3fc" stroke-width="1" opacity="0.25"/>
      <line x1="189.0" y1="248.4" x2="205.3" y2="244.5" stroke="#7dd3fc" stroke-width="1" opacity="0.11"/>
      <line x1="211.2" y1="337.6" x2="201.2" y2="351.1" stroke="#7dd3fc" stroke-width="1" opacity="0.19"/>
      <line x1="211.2" y1="337.6" x2="218.9" y2="346.5" stroke="#7dd3fc" stroke-width="1" opacity="0.21"/>
      <line x1="312.5" y1="286.5" x2="313.8" y2="275.6" stroke="#7dd3fc" stroke-width="1" opacity="0.16"/>
      <line x1="213.0" y1="160.9" x2="224.1" y2="150.8" stroke="#7dd3fc" stroke-width="1" opacity="0.17"/>
      <line x1="213.0" y1="160.9" x2="220.4" y2="166.5" stroke="#7dd3fc" stroke-width="1" opacity="0.13"/>
      <line x1="263.5" y1="320.5" x2="268.4" y2="328.3" stroke="#7dd3fc" stroke-width="1" opacity="0.25"/>
      <line x1="204.5" y1="269.6" x2="194.5" y2="279.4" stroke="#7dd3fc" stroke-width="1" opacity="0.24"/>
      <line x1="204.5" y1="269.6" x2="195.8" y2="265.1" stroke="#7dd3fc" stroke-width="1" opacity="0.11"/>
      <line x1="276.0" y1="152.3" x2="290.3" y2="155.9" stroke="#7dd3fc" stroke-width="1" opacity="0.17"/>
      <line x1="301.8" y1="203.3" x2="300.2" y2="217.0" stroke="#7dd3fc" stroke-width="1" opacity="0.2"/>
      <line x1="324.2" y1="258.0" x2="327.2" y2="250.7" stroke="#7dd3fc" stroke-width="1" opacity="0.12"/>
      <line x1="220.4" y1="355.3" x2="218.9" y2="346.5" stroke="#7dd3fc" stroke-width="1" opacity="0.22"/>
      <line x1="236.9" y1="345.8" x2="247.7" y2="346.2" stroke="#7dd3fc" stroke-width="1" opacity="0.23"/>
      <line x1="228.3" y1="305.8" x2="219.5" y2="292.0" stroke="#7dd3fc" stroke-width="1" opacity="0.25"/>
      <line x1="194.5" y1="279.4" x2="195.8" y2="265.1" stroke="#7dd3fc" stroke-width="1" opacity="0.14"/>
      <line x1="152.5" y1="285.9" x2="168.7" y2="281.8" stroke="#7dd3fc" stroke-width="1" opacity="0.22"/>
        <circle cx="317.7" cy="339.8" r="2.9" fill="#a5b4fc" opacity="0.61"/>
      <circle cx="308.5" cy="224.6" r="2.5" fill="#e0e7ff" opacity="0.44"/>
      <circle cx="177.1" cy="288.5" r="2.2" fill="#67e8f9" opacity="0.66"/>
      <circle cx="273.7" cy="351.4" r="2.9" fill="#67e8f9" opacity="0.82"/>
      <circle cx="297.1" cy="318.0" r="1.6" fill="#fbbf24" opacity="0.81"/>
      <circle cx="236.4" cy="166.6" r="3.3" fill="#67e8f9" opacity="0.47"/>
      <circle cx="239.9" cy="335.0" r="1.9" fill="#e0e7ff" opacity="0.38"/>
      <circle cx="155.6" cy="269.1" r="2.2" fill="#e0e7ff" opacity="0.69"/>
      <circle cx="226.3" cy="341.0" r="1.6" fill="#e0e7ff" opacity="0.58"/>
      <circle cx="320.7" cy="326.2" r="1.6" fill="#67e8f9" opacity="0.37"/>
      <circle cx="203.5" cy="307.2" r="1.6" fill="#a5b4fc" opacity="0.43"/>
      <circle cx="289.1" cy="303.9" r="2.5" fill="#e0e7ff" opacity="0.6"/>
      <circle cx="222.1" cy="331.0" r="1.9" fill="#e0e7ff" opacity="0.37"/>
      <circle cx="306.8" cy="335.2" r="1.6" fill="#e0e7ff" opacity="0.41"/>
      <circle cx="231.4" cy="324.0" r="2.5" fill="#67e8f9" opacity="0.79"/>
      <circle cx="183.4" cy="266.6" r="1.6" fill="#e0e7ff" opacity="0.56"/>
      <circle cx="328.4" cy="199.8" r="2.2" fill="#e0e7ff" opacity="0.36"/>
      <circle cx="221.1" cy="314.5" r="2.9" fill="#e0e7ff" opacity="0.87"/>
      <circle cx="156.0" cy="231.6" r="1.9" fill="#fbbf24" opacity="0.49"/>
      <circle cx="360.3" cy="235.7" r="1.6" fill="#e0e7ff" opacity="0.74"/>
      <circle cx="344.8" cy="274.8" r="3.3" fill="#fbbf24" opacity="0.91"/>
      <circle cx="295.1" cy="328.3" r="1.9" fill="#a5b4fc" opacity="0.5"/>
      <circle cx="194.0" cy="219.0" r="2.2" fill="#e0e7ff" opacity="0.49"/>
      <circle cx="289.0" cy="196.3" r="2.5" fill="#a5b4fc" opacity="0.8"/>
      <circle cx="286.6" cy="166.1" r="2.5" fill="#a5b4fc" opacity="0.79"/>
      <circle cx="252.4" cy="362.2" r="2.9" fill="#a5b4fc" opacity="0.85"/>
      <circle cx="289.1" cy="205.9" r="1.9" fill="#e0e7ff" opacity="0.88"/>
      <circle cx="252.6" cy="304.7" r="3.3" fill="#fbbf24" opacity="0.66"/>
      <circle cx="302.6" cy="180.5" r="2.9" fill="#e0e7ff" opacity="0.77"/>
      <circle cx="312.2" cy="301.6" r="2.2" fill="#67e8f9" opacity="0.75"/>
      <circle cx="185.3" cy="225.9" r="2.5" fill="#a5b4fc" opacity="0.55"/>
      <circle cx="235.8" cy="312.0" r="1.9" fill="#e0e7ff" opacity="0.63"/>
      <circle cx="198.7" cy="340.9" r="2.2" fill="#e0e7ff" opacity="0.43"/>
      <circle cx="327.5" cy="272.6" r="2.5" fill="#67e8f9" opacity="0.8"/>
      <circle cx="266.0" cy="156.7" r="2.2" fill="#67e8f9" opacity="0.37"/>
      <circle cx="311.4" cy="326.5" r="3.3" fill="#e0e7ff" opacity="0.62"/>
      <circle cx="238.7" cy="179.3" r="2.5" fill="#a5b4fc" opacity="0.43"/>
      <circle cx="336.1" cy="248.5" r="3.3" fill="#e0e7ff" opacity="0.57"/>
      <circle cx="300.8" cy="303.3" r="3.3" fill="#e0e7ff" opacity="0.69"/>
      <circle cx="180.6" cy="180.8" r="3.3" fill="#e0e7ff" opacity="0.72"/>
      <circle cx="208.1" cy="315.7" r="2.5" fill="#67e8f9" opacity="0.58"/>
      <circle cx="256.9" cy="194.3" r="2.5" fill="#e0e7ff" opacity="0.75"/>
      <circle cx="171.0" cy="221.9" r="2.9" fill="#fbbf24" opacity="0.5"/>
      <circle cx="361.6" cy="276.3" r="2.5" fill="#e0e7ff" opacity="0.68"/>
      <circle cx="174.5" cy="193.6" r="2.9" fill="#e0e7ff" opacity="0.81"/>
      <circle cx="199.6" cy="298.8" r="2.2" fill="#e0e7ff" opacity="0.88"/>
      <circle cx="185.0" cy="339.3" r="2.2" fill="#e0e7ff" opacity="0.47"/>
      <circle cx="341.4" cy="258.6" r="2.9" fill="#e0e7ff" opacity="0.5"/>
      <circle cx="209.8" cy="170.7" r="1.9" fill="#e0e7ff" opacity="0.39"/>
      <circle cx="320.7" cy="291.0" r="2.9" fill="#e0e7ff" opacity="0.9"/>
      <circle cx="192.8" cy="168.5" r="2.2" fill="#67e8f9" opacity="0.73"/>
      <circle cx="173.2" cy="202.9" r="2.2" fill="#67e8f9" opacity="0.8"/>
      <circle cx="254.8" cy="170.6" r="1.9" fill="#67e8f9" opacity="0.49"/>
      <circle cx="279.7" cy="185.2" r="3.3" fill="#e0e7ff" opacity="0.68"/>
      <circle cx="176.0" cy="299.4" r="2.2" fill="#67e8f9" opacity="0.61"/>
      <circle cx="236.8" cy="195.7" r="2.9" fill="#e0e7ff" opacity="0.44"/>
      <circle cx="347.2" cy="196.6" r="2.2" fill="#67e8f9" opacity="0.79"/>
      <circle cx="260.2" cy="149.5" r="1.9" fill="#e0e7ff" opacity="0.43"/>
      <circle cx="229.9" cy="207.0" r="2.2" fill="#e0e7ff" opacity="0.54"/>
      <circle cx="252.3" cy="161.2" r="3.3" fill="#67e8f9" opacity="0.79"/>
      <circle cx="231.9" cy="357.3" r="3.3" fill="#67e8f9" opacity="0.47"/>
      <circle cx="193.5" cy="230.8" r="2.5" fill="#e0e7ff" opacity="0.9"/>
      <circle cx="338.6" cy="305.5" r="2.2" fill="#67e8f9" opacity="0.45"/>
      <circle cx="201.3" cy="199.0" r="2.5" fill="#a5b4fc" opacity="0.78"/>
      <circle cx="255.2" cy="338.3" r="3.3" fill="#e0e7ff" opacity="0.79"/>
      <circle cx="356.4" cy="292.9" r="3.3" fill="#67e8f9" opacity="0.92"/>
      <circle cx="306.4" cy="270.4" r="1.6" fill="#e0e7ff" opacity="0.9"/>
      <circle cx="226.3" cy="184.0" r="2.9" fill="#a5b4fc" opacity="0.6"/>
      <circle cx="167.4" cy="272.5" r="1.9" fill="#a5b4fc" opacity="0.68"/>
      <circle cx="321.8" cy="280.3" r="2.9" fill="#e0e7ff" opacity="0.5"/>
      <circle cx="283.1" cy="322.1" r="1.6" fill="#e0e7ff" opacity="0.5"/>
      <circle cx="316.8" cy="214.9" r="1.6" fill="#e0e7ff" opacity="0.44"/>
      <circle cx="336.4" cy="235.5" r="2.5" fill="#e0e7ff" opacity="0.82"/>
      <circle cx="353.9" cy="271.5" r="1.6" fill="#fbbf24" opacity="0.69"/>
      <circle cx="348.7" cy="215.1" r="2.2" fill="#a5b4fc" opacity="0.41"/>
      <circle cx="328.7" cy="177.0" r="1.9" fill="#e0e7ff" opacity="0.89"/>
      <circle cx="266.5" cy="338.6" r="2.9" fill="#67e8f9" opacity="0.78"/>
      <circle cx="163.0" cy="260.1" r="2.5" fill="#e0e7ff" opacity="0.56"/>
      <circle cx="187.9" cy="310.5" r="1.6" fill="#e0e7ff" opacity="0.62"/>
      <circle cx="249.5" cy="152.2" r="1.6" fill="#67e8f9" opacity="0.91"/>
      <circle cx="331.5" cy="288.0" r="2.5" fill="#fbbf24" opacity="0.83"/>
      <circle cx="162.8" cy="295.7" r="2.5" fill="#e0e7ff" opacity="0.59"/>
      <circle cx="205.7" cy="212.5" r="3.3" fill="#e0e7ff" opacity="0.81"/>
      <circle cx="327.6" cy="314.5" r="2.5" fill="#fbbf24" opacity="0.58"/>
      <circle cx="342.7" cy="317.0" r="2.2" fill="#e0e7ff" opacity="0.81"/>
      <circle cx="197.5" cy="323.2" r="2.9" fill="#67e8f9" opacity="0.86"/>
      <circle cx="234.7" cy="154.3" r="2.9" fill="#fbbf24" opacity="0.78"/>
      <circle cx="184.7" cy="235.5" r="1.6" fill="#e0e7ff" opacity="0.76"/>
      <circle cx="251.8" cy="184.2" r="1.9" fill="#e0e7ff" opacity="0.39"/>
      <circle cx="315.3" cy="247.3" r="2.5" fill="#e0e7ff" opacity="0.42"/>
      <circle cx="164.6" cy="305.9" r="2.9" fill="#fbbf24" opacity="0.55"/>
      <circle cx="353.2" cy="246.1" r="1.9" fill="#e0e7ff" opacity="0.88"/>
      <circle cx="308.0" cy="195.9" r="1.9" fill="#e0e7ff" opacity="0.86"/>
      <circle cx="310.4" cy="170.1" r="2.5" fill="#e0e7ff" opacity="0.79"/>
      <circle cx="292.2" cy="182.5" r="3.3" fill="#e0e7ff" opacity="0.49"/>
      <circle cx="303.7" cy="351.4" r="1.6" fill="#67e8f9" opacity="0.81"/>
      <circle cx="294.9" cy="171.8" r="2.2" fill="#a5b4fc" opacity="0.95"/>
      <circle cx="254.3" cy="324.1" r="1.9" fill="#e0e7ff" opacity="0.47"/>
      <circle cx="327.0" cy="219.8" r="2.9" fill="#e0e7ff" opacity="0.43"/>
      <circle cx="169.6" cy="316.1" r="1.6" fill="#67e8f9" opacity="0.76"/>
      <circle cx="281.6" cy="355.9" r="2.5" fill="#67e8f9" opacity="0.78"/>
      <circle cx="345.2" cy="240.6" r="2.9" fill="#e0e7ff" opacity="0.7"/>
      <circle cx="259.2" cy="204.8" r="2.2" fill="#67e8f9" opacity="0.43"/>
      <circle cx="338.6" cy="224.6" r="2.9" fill="#e0e7ff" opacity="0.77"/>
      <circle cx="305.0" cy="294.9" r="2.9" fill="#a5b4fc" opacity="0.39"/>
      <circle cx="319.3" cy="238.3" r="1.6" fill="#e0e7ff" opacity="0.62"/>
      <circle cx="264.2" cy="347.9" r="1.9" fill="#fbbf24" opacity="0.63"/>
      <circle cx="351.8" cy="284.3" r="1.9" fill="#e0e7ff" opacity="0.41"/>
      <circle cx="185.8" cy="202.9" r="1.6" fill="#67e8f9" opacity="0.53"/>
      <circle cx="363.4" cy="266.1" r="2.2" fill="#67e8f9" opacity="0.82"/>
      <circle cx="275.3" cy="170.3" r="1.6" fill="#a5b4fc" opacity="0.4"/>
      <circle cx="163.7" cy="204.5" r="3.3" fill="#a5b4fc" opacity="0.83"/>
      <circle cx="168.5" cy="237.6" r="1.6" fill="#e0e7ff" opacity="0.95"/>
      <circle cx="204.6" cy="225.5" r="2.9" fill="#e0e7ff" opacity="0.73"/>
      <circle cx="193.4" cy="332.0" r="2.2" fill="#e0e7ff" opacity="0.46"/>
      <circle cx="189.0" cy="248.4" r="2.5" fill="#e0e7ff" opacity="0.51"/>
      <circle cx="211.2" cy="337.6" r="3.3" fill="#e0e7ff" opacity="0.93"/>
      <circle cx="312.5" cy="286.5" r="2.9" fill="#a5b4fc" opacity="0.72"/>
      <circle cx="315.2" cy="314.0" r="2.2" fill="#67e8f9" opacity="0.69"/>
      <circle cx="213.0" cy="160.9" r="2.9" fill="#a5b4fc" opacity="0.66"/>
      <circle cx="173.2" cy="254.9" r="1.9" fill="#e0e7ff" opacity="0.37"/>
      <circle cx="283.6" cy="342.8" r="3.3" fill="#e0e7ff" opacity="0.42"/>
      <circle cx="263.5" cy="320.5" r="2.5" fill="#67e8f9" opacity="0.93"/>
      <circle cx="266.2" cy="193.1" r="2.5" fill="#e0e7ff" opacity="0.56"/>
      <circle cx="204.5" cy="269.6" r="3.3" fill="#e0e7ff" opacity="0.79"/>
      <circle cx="276.0" cy="152.3" r="2.5" fill="#fbbf24" opacity="0.78"/>
      <circle cx="343.2" cy="292.9" r="2.9" fill="#e0e7ff" opacity="0.46"/>
      <circle cx="160.4" cy="218.6" r="2.2" fill="#fbbf24" opacity="0.8"/>
      <circle cx="224.1" cy="150.8" r="1.6" fill="#e0e7ff" opacity="0.61"/>
      <circle cx="176.9" cy="323.5" r="2.5" fill="#e0e7ff" opacity="0.82"/>
      <circle cx="157.7" cy="245.2" r="1.6" fill="#e0e7ff" opacity="0.38"/>
      <circle cx="301.8" cy="203.3" r="2.5" fill="#e0e7ff" opacity="0.37"/>
      <circle cx="205.3" cy="244.5" r="2.9" fill="#e0e7ff" opacity="0.68"/>
      <circle cx="337.9" cy="206.7" r="3.3" fill="#e0e7ff" opacity="0.38"/>
      <circle cx="324.2" cy="258.0" r="2.9" fill="#e0e7ff" opacity="0.59"/>
      <circle cx="218.0" cy="210.4" r="3.3" fill="#e0e7ff" opacity="0.45"/>
      <circle cx="220.4" cy="355.3" r="2.9" fill="#67e8f9" opacity="0.89"/>
      <circle cx="236.9" cy="345.8" r="1.6" fill="#fbbf24" opacity="0.71"/>
      <circle cx="353.9" cy="227.5" r="1.9" fill="#e0e7ff" opacity="0.53"/>
      <circle cx="300.2" cy="217.0" r="1.9" fill="#e0e7ff" opacity="0.9"/>
      <circle cx="228.3" cy="305.8" r="1.9" fill="#e0e7ff" opacity="0.94"/>
      <circle cx="216.7" cy="183.9" r="1.9" fill="#e0e7ff" opacity="0.64"/>
      <circle cx="348.6" cy="306.7" r="1.6" fill="#e0e7ff" opacity="0.4"/>
      <circle cx="149.6" cy="260.4" r="3.3" fill="#a5b4fc" opacity="0.49"/>
      <circle cx="313.8" cy="275.6" r="1.9" fill="#a5b4fc" opacity="0.48"/>
      <circle cx="194.5" cy="279.4" r="3.3" fill="#e0e7ff" opacity="0.94"/>
      <circle cx="201.2" cy="351.1" r="2.9" fill="#e0e7ff" opacity="0.81"/>
      <circle cx="268.4" cy="328.3" r="1.9" fill="#fbbf24" opacity="0.93"/>
      <circle cx="240.4" cy="322.6" r="2.9" fill="#e0e7ff" opacity="0.91"/>
      <circle cx="316.3" cy="179.8" r="3.3" fill="#e0e7ff" opacity="0.45"/>
      <circle cx="152.5" cy="285.9" r="1.6" fill="#a5b4fc" opacity="0.46"/>
      <circle cx="195.8" cy="265.1" r="2.5" fill="#e0e7ff" opacity="0.92"/>
      <circle cx="218.9" cy="346.5" r="2.5" fill="#e0e7ff" opacity="0.47"/>
      <circle cx="220.4" cy="166.5" r="2.5" fill="#e0e7ff" opacity="0.78"/>
      <circle cx="290.3" cy="155.9" r="1.9" fill="#e0e7ff" opacity="0.53"/>
      <circle cx="335.9" cy="192.8" r="2.5" fill="#67e8f9" opacity="0.8"/>
      <circle cx="247.7" cy="346.2" r="2.9" fill="#fbbf24" opacity="0.9"/>
      <circle cx="192.4" cy="185.2" r="2.2" fill="#e0e7ff" opacity="0.39"/>
      <circle cx="311.2" cy="346.1" r="2.9" fill="#e0e7ff" opacity="0.77"/>
      <circle cx="323.9" cy="301.5" r="2.5" fill="#e0e7ff" opacity="0.52"/>
      <circle cx="168.7" cy="281.8" r="2.5" fill="#e0e7ff" opacity="0.83"/>
      <circle cx="357.5" cy="255.2" r="3.3" fill="#67e8f9" opacity="0.75"/>
      <circle cx="219.5" cy="292.0" r="3.3" fill="#67e8f9" opacity="0.6"/>
      <circle cx="278.2" cy="206.5" r="1.9" fill="#e0e7ff" opacity="0.77"/>
      <circle cx="268.6" cy="364.1" r="3.3" fill="#e0e7ff" opacity="0.54"/>
      <circle cx="215.3" cy="318.4" r="8" fill="#22d3ee" opacity="0.16"/>
      <circle cx="215.3" cy="318.4" r="3.6" fill="#22d3ee" opacity="0.95"/>
      <circle cx="285.6" cy="310.5" r="8" fill="#22d3ee" opacity="0.16"/>
      <circle cx="285.6" cy="310.5" r="3.6" fill="#22d3ee" opacity="0.95"/>
      <circle cx="327.2" cy="250.7" r="8" fill="#22d3ee" opacity="0.16"/>
      <circle cx="327.2" cy="250.7" r="3.6" fill="#22d3ee" opacity="0.95"/>
      <circle cx="186.7" cy="231.5" r="8" fill="#fbbf24" opacity="0.16"/>
      <circle cx="186.7" cy="231.5" r="3.6" fill="#fbbf24" opacity="0.95"/>
      </g>
      <circle cx="256" cy="256" r="118.0" fill="none" stroke="#22d3ee" stroke-width="4" opacity="0.75"/>
      <circle cx="256" cy="256" r="40.0" fill="#05060f"/>
      <circle cx="256" cy="256" r="40.0" fill="none" stroke="#7dd3fc" stroke-width="5" opacity="0.95"/>
      <circle cx="256" cy="256" r="32.0" fill="none" stroke="#22d3ee" stroke-width="1.5" opacity="0.3"/>
      <circle cx="273" cy="231" r="16" fill="#e0e7ff" opacity="0.22"/>
      <circle cx="273" cy="231" r="9" fill="#f1f5ff" opacity="0.92"/>
    </g>
    <path d="M34 272 C 96 126, 330 84, 478 234 C 392 414, 156 406, 34 272 Z"
      fill="none" stroke="url(#cxFavLid)" stroke-width="20" stroke-linejoin="round"/>
</svg>
